<?xml version="1.0" encoding="utf-8"?>
<!-- Generator: Adobe Illustrator 15.0.0, SVG Export Plug-In . SVG Version: 6.00 Build 0)  -->
<!DOCTYPE svg PUBLIC "-//W3C//DTD SVG 1.1//EN" "http://www.w3.org/Graphics/SVG/1.1/DTD/svg11.dtd">
<svg version="1.1" id="Layer_1" xmlns="http://www.w3.org/2000/svg" xmlns:xlink="http://www.w3.org/1999/xlink" x="0px" y="0px"
	 width="145px" height="75px" viewBox="0 0 145 75" enable-background="new 0 0 145 75" xml:space="preserve">
<g>
	<path fill="#0071CD" d="M86.726,66.585c0.783,0.749,1.004,1.881,0.951,2.954c-0.057,1.076-0.35,1.99-0.889,2.74
		c-0.537,0.754-1.262,1.21-2.174,1.371c-0.914,0.16-1.912-0.135-2.982-0.888c-1.186-0.858-1.803-1.825-1.855-2.9
		c-0.055-1.073,0.242-2.016,0.887-2.822c0.643-0.805,1.506-1.314,2.58-1.531C84.315,65.295,85.606,65.513,86.726,66.585"/>
	<path fill="#0071CD" d="M8.133,27.329c0.475,0.334,0.912,0.465,1.318,0.393c0.402-0.071,0.725-0.272,0.963-0.606
		c0.236-0.332,0.369-0.735,0.391-1.212c0.025-0.476-0.105-0.927-0.391-1.354c-0.57-0.38-1.096-0.523-1.57-0.428
		c-0.477,0.096-0.857,0.32-1.141,0.677c-0.283,0.357-0.416,0.774-0.391,1.249C7.336,26.521,7.608,26.95,8.133,27.329"/>
	<path fill="#0071CD" d="M142.62,24.031c-0.285-0.26-0.664-0.391-1.137-0.391c-1.184-0.095-2.229-0.178-3.125-0.249
		c-0.9-0.071-1.941-0.106-3.127-0.106c-0.521,0-1.055,0.012-1.596,0.035c-0.547,0.025-1.08,0.061-1.6,0.107
		c0.662-3.693,1.268-6.688,1.812-8.986c0.543-2.297,0.957-4.108,1.24-5.435c0.283-1.325,0.416-2.261,0.393-2.807
		c-0.025-0.543-0.273-0.888-0.746-1.03c-1.043-0.235-1.918,0.084-2.627,0.96c-0.713,0.877-1.305,1.942-1.777,3.196
		c-0.477,1.256-0.852,2.521-1.137,3.801c-0.283,1.278-0.498,2.202-0.639,2.771c-0.381,1.185-0.688,2.214-0.924,3.09
		c-0.238,0.878-0.523,1.669-0.852,2.38c-0.332,0.71-0.762,1.397-1.279,2.061c-0.523,0.663-1.256,1.397-2.203,2.201
		c-1.516,0.617-2.854,1.339-4.014,2.167c-1.162,0.829-1.695,1.718-1.598,2.665c0,0.379,0.082,0.65,0.248,0.816
		s0.367,0.272,0.602,0.319c0.236,0.048,0.5,0.035,0.783-0.035c0.283-0.071,0.545-0.153,0.781-0.249
		c0.379-0.188,1.041-0.414,1.988-0.675c0.947-0.26,1.99-0.508,3.127-0.746c-0.379,1.801-0.699,3.624-0.961,5.469
		c-0.258,1.848-0.484,3.719-0.672,5.614c-0.096,1.231-0.203,2.545-0.32,3.941c-0.035,0.423-0.061,0.844-0.078,1.262
		c-0.746,0.739-1.582,1.398-2.512,1.979c-0.951,0.595-1.912,1.094-2.889,1.498c-0.973,0.404-1.916,0.667-2.816,0.784
		c-0.904,0.119-1.664,0.06-2.281-0.18c0,0-0.795-0.296-0.891-1.533c-0.074-0.927-0.025-2.127,0.143-3.601
		c0.164-1.474,0.414-3.185,0.748-5.135c0.332-1.95,0.689-3.994,1.068-6.133c0-0.95-0.273-1.51-0.82-1.677
		c-0.545-0.165-1.199,0.298-1.959,1.392c-0.953,2.187-1.809,4.41-2.57,6.667c-0.76,2.259-1.26,4.934-1.496,8.023
		c-0.037,0.615-0.023,1.202,0.037,1.762c-0.092,0.029-0.188,0.066-0.285,0.113c-0.402,0.189-0.793,0.39-1.172,0.604
		c-0.379,0.212-0.711,0.354-0.994,0.425c-0.285,0.071-0.496-0.036-0.641-0.32c-0.473-1.089-0.758-2.272-0.85-3.551
		c-0.1-1.279-0.107-2.546-0.037-3.801c0.068-1.254,0.188-2.439,0.355-3.552c0.164-1.113,0.295-2.049,0.391-2.807
		c0.047-0.757-0.107-1.385-0.463-1.883c-0.354-0.497-0.781-0.816-1.279-0.958c-0.496-0.142-1.02-0.094-1.562,0.142
		c-0.545,0.237-1.006,0.663-1.383,1.278c-0.807,1.659-1.6,3.316-2.381,4.973c-0.781,1.658-1.717,3.244-2.809,4.76
		c-0.52,0.807-1.182,1.713-1.842,2.599c-1.211,1.616-2.598,3.396-3.68,2.936c-0.814-0.349-0.871-3.138-0.764-5.028
		c0.117-2.104,0.449-3.69,0.711-5.655c0.26-1.965,0.604-3.883,1.031-5.755c0.426-1.869,0.875-3.516,1.348-4.937
		c0.189-0.473,0.203-0.888,0.037-1.242c-0.166-0.356-0.395-0.604-0.678-0.746c-0.281-0.143-0.613-0.166-0.992-0.071
		c-0.379,0.096-0.689,0.355-0.924,0.78c-0.568,0.996-1.195,2.499-1.883,4.512c-0.686,2.014-1.289,4.132-1.811,6.358
		c-0.133,0.563-0.258,1.123-0.373,1.68c-1.08-0.408-2.215-0.836-3.426-1.289c-1.967-0.733-4.039-1.433-6.217-2.096
		c-0.711-1.989-1.694-3.812-2.948-5.469c-1.26-1.658-2.617-3.221-4.086-4.688c-1.467-1.468-2.959-2.842-4.475-4.12
		c-1.518-1.279-2.889-2.522-4.121-3.73c-1.23-1.207-2.229-2.379-2.982-3.516c-0.76-1.137-1.113-2.297-1.066-3.481
		c0.047-0.946,0.428-1.894,1.137-2.841c0.711-0.947,1.574-1.799,2.594-2.558c1.018-0.757,2.119-1.374,3.303-1.848
		c1.184-0.473,2.248-0.71,3.197-0.71c0.854,0,1.551,0.024,2.094,0.071c0.545,0.048,1.055,0.153,1.529,0.319
		c0.471,0.167,0.959,0.367,1.453,0.604c0.5,0.237,1.15,0.521,1.957,0.853c0.426,0,0.791-0.083,1.1-0.249
		c0.307-0.165,0.51-0.392,0.604-0.675c0.096-0.285,0.096-0.579,0-0.889c-0.094-0.307-0.333-0.604-0.709-0.888
		c-1.801-0.852-3.623-1.479-5.471-1.882C65.639,1.395,63.85,1.24,62.12,1.334c-1.727,0.096-3.373,0.462-4.936,1.101
		c-1.564,0.64-2.982,1.552-4.264,2.734c-1.846,1.753-2.854,3.518-3.018,5.293c-0.168,1.776,0.164,3.552,0.994,5.328
		c0.828,1.775,2.014,3.528,3.553,5.257c1.537,1.729,3.125,3.422,4.76,5.079s3.172,3.256,4.617,4.794
		c1.443,1.54,2.473,3.021,3.09,4.439c-2.086-0.473-4.014-0.875-5.789-1.206s-3.469-0.533-5.08-0.604
		c-1.609-0.071-3.195,0.012-4.76,0.248c-1.562,0.237-3.195,0.687-4.9,1.35c-1.99,0.758-3.684,1.965-5.078,3.623
		c-1.398,1.658-2.381,3.471-2.949,5.435c-0.547,1.89-0.629,3.802-0.258,5.734c-1.223,0.421-2.738,0.913-3.098,0.907
		c-0.938-0.014-1.275-0.569-1.449-1.201c-0.152-0.538-0.291-2.883-0.219-4.375c0.068-1.492,0.189-2.983,0.355-4.476
		c0.162-1.491,0.354-2.984,0.566-4.475c0.213-1.492,0.367-2.994,0.463-4.511c0.047-0.71-0.035-1.278-0.25-1.705
		c-0.213-0.426-0.604-0.828-1.17-1.207c-0.285-0.188-0.664-0.355-1.137-0.498c-0.664-0.236-1.232-0.295-1.705-0.177
		c-0.475,0.118-0.973,0.415-1.492,0.888c-1.232,1.517-2.355,2.984-3.375,4.405c-1.018,1.42-1.977,2.912-2.877,4.474
		c0.096-0.898,0.107-1.775,0.035-2.629c-0.07-0.852-0.199-2.395-0.32-2.698c-0.119-0.305-0.342-0.663-0.604-0.853
		c-0.26-0.188-0.531-0.271-0.816-0.248c-0.283,0.023-0.559,0.142-0.816,0.354c-0.262,0.214-0.562,0.581-0.609,1.028
		c-0.031,0.305-0.02,1.695-0.066,2.523c-0.047,0.829-0.141,1.646-0.283,2.451v0.07c-0.238,0.949-0.531,1.99-0.887,3.126
		s-0.699,2.298-1.031,3.481c-0.273,0.977-0.504,1.953-0.697,2.93c-0.301,0.219-0.604,0.431-0.922,0.63
		c-0.951,0.596-1.914,1.095-2.889,1.498c-0.975,0.404-1.914,0.667-2.816,0.784c-0.904,0.119-1.664,0.061-2.283-0.179
		c0,0-0.793-0.297-0.891-1.532c-0.072-0.928-0.025-2.129,0.145-3.602c0.164-1.475,0.414-3.185,0.746-5.135
		c0.334-1.951,0.689-3.995,1.07-6.134c0-0.95-0.275-1.509-0.818-1.677c-0.549-0.165-1.201,0.298-1.963,1.392
		c-0.951,2.187-1.811,4.41-2.568,6.668c-0.762,2.258-1.262,4.933-1.496,8.022c-0.098,1.666,0.154,3.127,0.748,4.387
		c0.596,1.261,1.617,2.032,3.066,2.318c1.449,0.285,3.352-0.049,5.703-0.999c1.398-0.563,2.977-1.445,4.732-2.628
		c0,0.049-0.004,0.099-0.004,0.146c0.143,1.09,0.615,1.823,1.42,2.202c0.805,0.377,1.803,0.449,2.631-0.284
		c1.012-0.898,1.49-1.646,1.916-2.663c0.428-1.019,0.898-2.025,1.42-3.021c0.805-1.609,1.637-3.22,2.488-4.831
		c0.85-1.608,1.822-3.148,2.912-4.617c-0.096,0.899-0.203,1.966-0.318,3.196c-0.119,1.232-0.168,2.487-0.145,3.766
		c0.025,1.278,0.154,2.511,0.391,3.694c0.238,1.183,0.664,2.179,1.279,2.983c0.896,1.137,1.775,1.858,2.629,2.167
		c0.852,0.308,1.729,0.365,2.629,0.177c0.898-0.19,1.811-0.521,2.734-0.994c0.318-0.162,0.645-0.319,0.971-0.477
		c0.535,0.947,1.242,1.818,2.133,2.607c1.752,1.516,3.992,2.581,6.715,3.197c2.723,0.614,5.541,0.84,8.453,0.675
		c2.914-0.167,5.695-0.675,8.346-1.527c2.654-0.853,4.805-1.967,6.467-3.339c0.754-0.473,1.467-1.113,2.131-1.918
		c0.662-0.806,1.207-1.752,1.635-2.842c0.426-1.089,0.719-2.284,0.887-3.588c0.164-1.302,0.129-2.663-0.105-4.084
		c-0.049-0.143-0.072-0.331-0.072-0.569c1.514,0.427,3.055,0.889,4.617,1.386c1.055,0.336,2.092,0.679,3.127,1.025
		c-0.104,0.634-0.201,1.265-0.287,1.888c-0.283,2.107-0.307,3.729-0.07,4.865c0.473,2.605,1.289,4.311,2.451,5.115
		c1.158,0.805,2.424,1.041,3.801,0.711c1.371-0.332,2.77-1.091,4.191-2.273c1.42-1.184,2.648-2.486,3.693-3.907
		c0.662-0.899,1.232-1.775,1.703-2.629c0.145,0.522,0.346,1.304,0.607,2.345c0.258,1.042,0.674,1.979,1.242,2.806
		c0.566,0.829,1.324,1.373,2.273,1.634c0.943,0.26,2.176-0.13,3.693-1.172c0.236-0.189,0.496-0.413,0.781-0.675
		c0.014-0.012,0.021-0.023,0.035-0.036c0.027,0.056,0.049,0.114,0.074,0.169c0.594,1.261,1.613,2.032,3.066,2.318
		c1.449,0.285,3.35-0.049,5.705-1c1.93-0.78,4.211-2.162,6.83-4.126c0.111,1.063,0.336,2.1,0.674,3.102
		c0.43,1.254,1.115,2.354,2.062,3.303c0.947,0.947,2.105,1.147,3.482,0.604c1.371-0.545,2.781-1.527,4.225-2.948
		c1.445-1.42,2.852-3.101,4.229-5.042c1.373-1.942,2.533-3.837,3.48-5.685c0.283-0.378,0.414-0.757,0.391-1.137
		c-0.025-0.379-0.154-0.686-0.391-0.923c-0.238-0.236-0.545-0.365-0.926-0.392c-0.377-0.022-0.756,0.107-1.135,0.392
		c-1.232,1.942-2.451,3.635-3.658,5.079c-1.207,1.445-2.297,2.628-3.268,3.552c-0.975,0.924-1.789,1.575-2.451,1.954
		s-1.064,0.451-1.207,0.213c-0.283-1.562-0.426-3.304-0.426-5.222s0.105-3.883,0.318-5.896c0.211-2.012,0.508-4.025,0.889-6.039
		c0.379-2.012,0.756-3.941,1.137-5.788c0.379-0.143,1.064-0.331,2.061-0.569c0.992-0.236,2.082-0.484,3.268-0.745
		c1.184-0.26,2.309-0.497,3.373-0.71s1.857-0.392,2.379-0.533c0.473-0.047,0.818-0.225,1.031-0.533
		c0.213-0.307,0.309-0.627,0.285-0.959C143.056,24.587,142.903,24.292,142.62,24.031 M70.397,45.839
		c-0.094,1.02-0.393,1.99-0.887,2.913c-0.498,0.924-1.223,1.693-2.168,2.309c-1.277,0.853-2.939,1.587-4.975,2.202
		c-2.033,0.616-4.143,0.994-6.32,1.137c-2.18,0.142-4.297-0.012-6.359-0.462c-2.059-0.45-3.754-1.29-5.076-2.522
		c-0.426-0.426-0.773-0.84-1.031-1.242c-0.262-0.403-0.486-0.889-0.676-1.456c-0.426-1.516-0.365-2.889,0.178-4.12
		c0.545-1.231,1.361-2.285,2.451-3.162c1.088-0.875,2.334-1.563,3.73-2.06c1.396-0.497,2.707-0.817,3.939-0.959
		c2.277-0.236,4.572-0.236,6.893,0c2.32,0.237,4.57,0.545,6.748,0.923l2.559,0.498c0.379,0.899,0.664,1.871,0.852,2.912
		C70.444,43.791,70.493,44.82,70.397,45.839"/>
	<path fill="#0071CD" d="M113.108,27.329c0.477,0.334,0.914,0.465,1.32,0.393c0.404-0.071,0.723-0.272,0.963-0.606
		c0.238-0.332,0.367-0.736,0.393-1.212c0.021-0.476-0.109-0.927-0.393-1.354c-0.572-0.38-1.094-0.523-1.572-0.429
		c-0.475,0.097-0.854,0.321-1.139,0.678c-0.283,0.357-0.416,0.774-0.393,1.249C112.312,26.52,112.585,26.95,113.108,27.329"/>
	<path fill="#FFFFFF" d="M82.392,70.913h-0.943v-0.942v-0.943v-0.943h0.943v0.943h0.943h0.943h0.943v-0.943h0.943v0.943v0.943
		h-0.943h-0.943h-0.943h-0.943V70.913z M85.222,68.084h-0.943h-0.943h-0.943v-0.942h0.943h0.943h0.943V68.084z M84.278,70.913h0.943
		v0.944h-0.943h-0.943h-0.943v-0.944h0.943H84.278z"/>
	<path fill="#55555A" d="M44.36,71.099c0,0.445-0.121,0.779-0.365,1.001c-0.242,0.223-0.592,0.334-1.047,0.334h-1.115v-0.597h1.193
		c0.193,0,0.352-0.058,0.471-0.173c0.121-0.115,0.182-0.254,0.182-0.416v-0.816c0-0.157-0.041-0.284-0.123-0.381
		c-0.08-0.098-0.203-0.146-0.367-0.146h-0.232c-0.389,0-0.693-0.114-0.92-0.342c-0.225-0.228-0.338-0.559-0.338-0.993v-0.299
		c0-0.444,0.121-0.778,0.365-1.001c0.242-0.223,0.592-0.334,1.049-0.334h1.123v0.597h-1.201c-0.195,0-0.352,0.059-0.471,0.173
		c-0.121,0.115-0.182,0.254-0.182,0.416v0.598c0,0.162,0.053,0.297,0.158,0.404c0.104,0.107,0.24,0.161,0.408,0.161h0.234
		c0.373,0,0.662,0.106,0.869,0.321s0.309,0.539,0.309,0.974V71.099z"/>
	<path fill="#55555A" d="M48.979,71.099c0,0.445-0.125,0.779-0.365,1.001c-0.246,0.223-0.596,0.334-1.049,0.334h-0.197
		c-0.455,0-0.805-0.111-1.049-0.334c-0.242-0.222-0.363-0.556-0.363-1.001v-4.162h0.682v4.312c0,0.162,0.061,0.301,0.182,0.416
		c0.119,0.115,0.277,0.173,0.469,0.173h0.355c0.193,0,0.352-0.058,0.471-0.173c0.121-0.115,0.182-0.254,0.182-0.416v-4.312h0.684
		V71.099z"/>
	<polygon fill="#55555A" points="52.952,72.434 50.854,72.434 50.854,71.86 51.561,71.86 51.561,67.51 50.854,67.51 50.854,66.937 
		52.952,66.937 52.952,67.51 52.245,67.51 52.245,71.86 52.952,71.86 	"/>
	<polygon fill="#55555A" points="57.93,67.533 56.682,67.533 56.682,72.434 55.999,72.434 55.999,67.533 54.75,67.533 54.75,66.937 
		57.93,66.937 	"/>
	<path fill="#55555A" d="M62.547,72.434h-0.699l-0.299-1.39h-1.531l-0.305,1.39h-0.699l1.324-5.497h0.906L62.547,72.434z
		 M61.424,70.455l-0.645-3l-0.635,3H61.424z"/>
	<path fill="#55555A" d="M66.668,71.193c0,0.449-0.102,0.769-0.309,0.957c-0.209,0.189-0.549,0.283-1.025,0.283h-1.57v-5.497h1.475
		c0.469,0,0.809,0.095,1.027,0.283c0.217,0.188,0.326,0.502,0.326,0.942v0.447c0,0.403-0.145,0.707-0.434,0.911
		c0.342,0.188,0.51,0.51,0.51,0.966V71.193z M65.909,68.688v-0.597c0-0.198-0.047-0.343-0.139-0.432
		c-0.09-0.089-0.236-0.134-0.436-0.134h-0.887v1.736h0.887c0.162,0,0.299-0.053,0.408-0.157
		C65.854,68.999,65.909,68.86,65.909,68.688 M65.987,71.271v-0.856c0-0.173-0.053-0.31-0.156-0.412
		c-0.105-0.102-0.246-0.152-0.416-0.152h-0.967v1.995h0.955c0.199,0,0.348-0.047,0.443-0.139
		C65.938,71.616,65.987,71.471,65.987,71.271"/>
	<polygon fill="#55555A" points="70.872,72.434 68.434,72.434 68.434,66.937 69.12,66.937 69.12,71.837 70.872,71.837 	"/>
	<polygon fill="#55555A" points="75.403,72.434 72.78,72.434 72.78,66.937 75.403,66.937 75.403,67.51 73.464,67.51 73.464,69.308 
		75.204,69.308 75.204,69.882 73.464,69.882 73.464,71.86 75.403,71.86 	"/>
	<rect x="89.071" y="69.686" fill="#55555A" width="2.555" height="0.589"/>
	<polygon fill="#55555A" points="95.835,72.434 93.735,72.434 93.735,71.86 94.444,71.86 94.444,67.51 93.735,67.51 93.735,66.937 
		95.835,66.937 95.835,67.51 95.128,67.51 95.128,71.86 95.835,71.86 	"/>
	<polygon fill="#55555A" points="100.718,72.434 99.595,72.434 98.362,67.518 98.362,72.434 97.726,72.434 97.726,66.937 
		98.839,66.937 100.083,71.853 100.083,66.937 100.718,66.937 	"/>
	<path fill="#55555A" d="M104.927,72.434h-1.115c-0.457,0-0.807-0.111-1.047-0.334c-0.246-0.222-0.365-0.556-0.365-1.001v-2.827
		c0-0.444,0.119-0.778,0.365-1.001c0.24-0.223,0.59-0.334,1.047-0.334h1.115v0.597h-1.193c-0.193,0-0.35,0.059-0.471,0.173
		c-0.121,0.115-0.18,0.254-0.18,0.416v3.126c0,0.162,0.059,0.301,0.18,0.416s0.277,0.173,0.471,0.173h1.193V72.434z"/>
	<polygon fill="#55555A" points="109.317,72.434 106.882,72.434 106.882,66.937 107.565,66.937 107.565,71.837 109.317,71.837 	"/>
	<path fill="#55555A" d="M114.044,71.099c0,0.445-0.123,0.779-0.365,1.001c-0.244,0.223-0.594,0.334-1.049,0.334h-0.195
		c-0.455,0-0.805-0.111-1.049-0.334c-0.242-0.222-0.367-0.556-0.367-1.001v-4.162h0.686v4.312c0,0.162,0.061,0.301,0.18,0.416
		c0.121,0.115,0.277,0.173,0.471,0.173h0.355c0.193,0,0.35-0.058,0.471-0.173c0.119-0.115,0.18-0.254,0.18-0.416v-4.312h0.684
		V71.099z"/>
	<path fill="#55555A" d="M118.3,71.099c0,0.445-0.121,0.779-0.365,1.001c-0.242,0.223-0.592,0.334-1.047,0.334h-1.117v-0.597h1.195
		c0.193,0,0.35-0.058,0.469-0.173c0.121-0.115,0.182-0.254,0.182-0.416v-0.816c0-0.157-0.039-0.284-0.121-0.381
		c-0.082-0.098-0.203-0.146-0.365-0.146h-0.234c-0.391,0-0.693-0.114-0.92-0.342c-0.225-0.228-0.338-0.559-0.338-0.993v-0.299
		c0-0.444,0.123-0.778,0.363-1.001c0.246-0.223,0.596-0.334,1.051-0.334h1.123v0.597h-1.203c-0.191,0-0.352,0.059-0.471,0.173
		c-0.119,0.115-0.182,0.254-0.182,0.416v0.598c0,0.162,0.053,0.297,0.158,0.404s0.242,0.161,0.41,0.161h0.232
		c0.373,0,0.664,0.106,0.867,0.321c0.209,0.215,0.312,0.539,0.312,0.974V71.099z"/>
	<polygon fill="#55555A" points="122.452,72.434 120.358,72.434 120.358,71.86 121.065,71.86 121.065,67.51 120.358,67.51 
		120.358,66.937 122.452,66.937 122.452,67.51 121.747,67.51 121.747,71.86 122.452,71.86 	"/>
	<path fill="#55555A" d="M127.417,71.099c0,0.445-0.121,0.779-0.365,1.001c-0.246,0.223-0.592,0.334-1.051,0.334h-0.314
		c-0.453,0-0.803-0.111-1.045-0.334c-0.244-0.222-0.365-0.556-0.365-1.001v-2.827c0-0.444,0.121-0.778,0.365-1.001
		c0.242-0.223,0.592-0.334,1.045-0.334h0.314c0.459,0,0.805,0.111,1.051,0.334c0.244,0.223,0.365,0.557,0.365,1.001V71.099z
		 M126.733,71.248v-3.126c0-0.162-0.061-0.301-0.18-0.416c-0.121-0.114-0.277-0.173-0.471-0.173h-0.473
		c-0.193,0-0.35,0.059-0.471,0.173c-0.121,0.115-0.18,0.254-0.18,0.416v3.126c0,0.162,0.059,0.301,0.18,0.416
		s0.277,0.173,0.471,0.173h0.473c0.193,0,0.35-0.058,0.471-0.173C126.673,71.549,126.733,71.41,126.733,71.248"/>
	<polygon fill="#55555A" points="131.776,72.434 130.651,72.434 129.419,67.518 129.419,72.434 128.784,72.434 128.784,66.937 
		129.899,66.937 131.14,71.853 131.14,66.937 131.776,66.937 	"/>
</g>
</svg>
